PathFileType	4	(X/Y/Z)	Patient4_TMGait_0pt7_02_left_05.trc.trc
DataRate	CameraRate	NumFrames	NumMarkers	Units	OrigDataRate	OrigDataStartFrame	OrigNumFrames
89.171974522293	89.171974522293	4	33	mm	89.171974522293	71	       141
Frame#	Time	Sacral			L.Shoulder			Chest			R.Shoulder			Neck			R.ASIS			L.ASIS			R.Thigh.Superior			R.Thigh.Lateral			R.Thigh.Inferior			R.Patella			L.Thigh.Superior			L.Thigh.Lateral			L.Thigh.Inferior			L.Patella			L.Shank.Superior			L.Shank.Lateral			L.Shank.Inferior			R.Shank.Superior			R.Shank.Lateral			R.Shank.Inferior			R.Heel			R.Midfoot.Superior			R.Midfoot.Lateral			R.Toe			L.Heel			L.Midfoot.Lateral			L.Midfoot.Superior			L.Toe			L.Elbow			L.Wrist			R.Elbow			R.Wrist			
		X1	Y1	Z1	X2	Y2	Z2	X3	Y3	Z3	X4	Y4	Z4	X5	Y5	Z5	X6	Y6	Z6	X7	Y7	Z7	X8	Y8	Z8	X9	Y9	Z9	X10	Y10	Z10	X11	Y11	Z11	X12	Y12	Z12	X13	Y13	Z13	X14	Y14	Z14	X15	Y15	Z15	X16	Y16	Z16	X17	Y17	Z17	X18	Y18	Z18	X19	Y19	Z19	X20	Y20	Z20	X21	Y21	Z21	X22	Y22	Z22	X23	Y23	Z23	X24	Y24	Z24	X25	Y25	Z25	X26	Y26	Z26	X27	Y27	Z27	X28	Y28	Z28	X29	Y29	Z29	X30	Y30	Z30	X31	Y31	Z31	X32	Y32	Z32	X33	Y33	Z33	

71	6.125000000000	833.823445391867	1015.091989589060	438.251022598118	1066.510084960180	1435.080936078637	278.148275077124	1150.034346081078	1350.485876361093	444.292552117490	1058.514542891773	1432.198616901956	610.497308575256	1054.356109608211	1488.286895223410	431.631895086748	1048.160226276803	937.316726093549	570.326860729406	906.161723279200	818.882098574105	254.138776049015	1121.506330098344	769.887139505311	544.575951872503	1077.493674084811	650.293546505577	621.263423903448	1167.245736867159	611.630698005575	542.911776132782	1201.546128754005	527.814068417616	564.262526932821	1058.048068651465	731.020511760187	324.338561081445	949.722385788691	635.180126681005	255.543007547332	1009.496512092346	542.481344977579	322.409626044673	995.302161121052	475.649348681445	331.335522977730	963.682690866778	408.618139455385	320.405529922063	864.891606217879	304.814813715711	264.419890027379	898.325168500683	188.793633385939	337.319623836820	1180.688838866842	438.770648138134	575.956783135676	1121.479040197024	328.190056507650	639.515275228459	1188.675856281496	238.763659440543	591.375668998187	1091.226715885798	52.937922009368	564.330482166007	1254.590224950704	125.791191855289	607.223320563236	1173.925115734063	50.580292504576	638.680083329916	1377.544063870131	86.889107580967	635.804919735269	756.789359328480	39.107677076918	373.840660448543	832.092174599863	35.353080703642	295.005735503841	915.365446670548	95.857384876613	323.942289360753	1044.287208650069	40.839691534559	297.593936826255	1091.874732055580	1109.398426282760	117.966545839063	1341.565398448999	1106.314909368486	158.971443630043	890.098193677552	1139.356519860156	737.974965120345	832.235587661125	884.928511690273	756.727152039940	
72	6.136214285714	835.292574290304	1013.082077356156	441.238149619572	1066.163097629263	1433.587242690424	280.503761521556	1150.064491397484	1349.361737548616	446.639476641896	1058.617228643050	1431.167562832875	612.754204808861	1054.050791775074	1486.907458298935	433.898004136976	1049.814668583228	935.270713139888	572.813755748489	855.809555988437	771.789459575698	241.827631131805	1120.764732820018	765.375739002633	547.662175742837	1073.819377351895	646.039839364370	623.262289637378	1163.483174809588	606.803814880540	545.157623899486	1196.241257035150	524.077239301122	565.483796533675	1057.322410580673	729.188826218890	325.926524244076	947.610789990783	634.405597063093	257.134583136629	1006.572955173504	540.988244030386	323.517540557817	991.860018364917	474.025375938554	332.226600024872	959.377047697535	407.334863086994	321.300662694289	859.210050693419	304.779104230877	265.146368176058	891.451903144315	188.157575126406	337.591386921823	1177.486460856452	435.016693932612	577.079703723563	1119.933245584079	322.850880954229	639.356296367448	1189.701505131389	235.153047641241	591.339301548630	1096.180221860869	48.282949161119	562.781776993941	1258.345493553848	122.958046359267	606.423014221923	1178.540595702128	46.941030957777	637.476219323288	1381.824248144043	85.630449598069	635.398253570177	748.828514594990	38.933673411692	373.826164261459	824.171530536466	35.196269392397	295.034327181326	907.481456281539	95.753949048997	323.948852344391	1036.440754375973	40.723480979498	297.533273992725	1091.753249992464	1108.215589570566	120.194838332945	1340.851166543618	1110.705265091887	162.982939553080	886.223008306226	1141.269951162243	739.591207113790	825.024981016109	887.482249705829	757.847539207795	
73	6.147428571429	836.854215812104	1010.992010886998	444.499242774582	1065.663113535000	1432.009350887005	282.950032914515	1150.094536006571	1348.270432079776	449.053099580534	1058.731284719190	1430.081400784365	615.150409175653	1053.665195984403	1485.503193009889	436.301087915093	1051.634747125017	933.191765840590	575.407093700367	814.425091907764	732.801367452868	232.250364185372	1120.527923407668	761.077790856999	550.966810136615	1070.535986930654	641.930770285383	625.097241435014	1160.322820462724	602.356942605116	547.429636349404	1191.358055512626	520.318111011744	566.587178242875	1056.975132452108	727.354434112851	327.652626583311	945.934364828005	633.525738171550	258.972858543591	1004.281746880481	539.419756975516	324.787069998196	989.163652152076	472.193195601004	333.244493696995	955.600097964300	405.900908439599	322.343767220219	853.865466251874	304.809427584023	266.036102361782	884.753719131844	187.498997897018	337.906317064170	1174.224117255007	431.165521467346	578.010543586629	1117.541398941281	317.878776986058	638.910328934633	1189.134121399649	231.488578770512	591.019455593689	1097.918135525635	44.890754471214	561.000800119539	1259.551071943873	119.567209944590	605.204565454759	1179.894520581609	43.837459100178	636.054821822279	1383.113120252770	82.582336298367	634.557765010512	740.854945772893	38.857800085590	373.777634319967	816.261191422719	35.056956764946	295.055218690728	899.660973664314	95.646121741650	323.927210027040	1028.626743984307	40.595210087852	297.447554627447	1091.157502387581	1106.757580101444	122.705313798035	1339.682746887077	1113.850529588760	166.988926995822	883.212645212027	1142.469514702497	741.114667237611	819.140543724527	889.241767139183	758.694120018489	
74	6.158642857143	838.434055066399	1008.926825214242	447.977296101600	1065.052088515322	1430.391431624071	285.489327100943	1150.145463983287	1347.236295849847	451.539010638100	1058.877772160358	1428.963202975748	617.700688263676	1053.260255880686	1484.126083116409	438.848047589524	1053.539605431340	931.161819366867	578.101532582952	790.403855498247	709.459563462849	227.836813403097	1120.797418094795	757.138721253910	554.452368616063	1067.725524831113	638.131306799790	626.765939012379	1157.851001718639	598.452424773203	549.721070430175	1187.050258169626	516.700769681340	567.583578503847	1057.019602351576	725.572293323797	329.529388248941	944.757615415713	632.552741637107	261.063338907900	1002.743692263240	537.799605115853	326.219966713272	987.354397317219	470.157572286731	334.372895928253	952.458988930258	404.334641080500	323.528214164006	848.951077173019	304.964270505629	267.089915013315	878.296828893601	186.870196430743	338.254904700972	1171.065191791152	427.386838754474	578.768924592976	1114.580229533914	313.404365238196	638.338796220048	1187.223220287080	227.871844867179	590.497363140211	1096.731381021243	42.625641515540	559.182168232987	1258.479140957301	115.770144503751	603.694940647962	1178.336943669345	41.289122245812	634.595775433653	1381.788401098733	78.081787675424	633.399416876415	732.889346838245	39.017108746536	373.680666113967	808.375440277937	35.002026433825	295.060336547263	891.952236569164	95.549956244497	323.862787230345	1020.844468727082	40.445044930915	297.339586774041	1090.052475340335	1105.043107433273	125.502193904902	1338.093260589067	1115.732568015602	170.980202612025	881.097114039002	1142.912489414500	742.578637878219	814.617060336537	890.149607987983	759.286556520059	
